<svg width="57" height="33" viewBox="0 0 57 33" fill="none" xmlns="http://www.w3.org/2000/svg">
<path fill-rule="evenodd" clip-rule="evenodd" d="M18 11.7893L36.1213 33H46L18 1V11.7893Z" fill="white"/>
<path fill-rule="evenodd" clip-rule="evenodd" d="M18 20V33H29L18 20Z" fill="white"/>
<path fill-rule="evenodd" clip-rule="evenodd" d="M24.0003 0.0109831L30.1661 6.99139H33.5132C33.5132 6.99139 35.9752 6.87358 36.8016 9.65348C37.5376 12.1287 36.0383 13.7943 36.0383 13.7943L40.6185 19C40.6185 19 46.5507 13.6487 42.7006 5.59713C39.9538 -0.147356 34.1234 0.000353366 34.1234 0.000353366C34.1234 0.000353366 23.9416 0.0109831 24.0003 0.0109831Z" fill="white"/>
<path fill-rule="evenodd" clip-rule="evenodd" d="M18 20L6.35059 33H0L18 12V20Z" fill="white"/>
<path fill-rule="evenodd" clip-rule="evenodd" d="M52.9707 32.9658L44 22.5V22.1818C44 16.5586 48.3777 12 53.7778 12H55V16.4545H53.7778C50.7402 16.4545 48.2778 19.0187 48.2778 22.1818V22.8182C48.2778 25.9813 50.7402 28.5455 53.7778 28.5455H55V33H53.7778C53.506 33 53.2368 32.9885 52.9707 32.9658Z" fill="white"/>
<path d="M55 12H57V16.5H55V12Z" fill="white"/>
<path d="M55 28.5H57V33H55V28.5Z" fill="white"/>
</svg>
